<svg

    fill="none"

    xmlns="http://www.w3.org/2000/svg"

    width="24"

    height="24"

    viewBox="0 0 102.13 37.44"

>

    <defs>

    <radialGradient

        id="radial-gradient"

        cx="-593.61"

        cy="381.37"

        r="1"

        gradientTransform="matrix(16.88, 0, 0, -16.88, 10100.38, 6454.32)"

        gradientUnits="userSpaceOnUse"

    >

        <stop offset="0" stop-color="#fcd006" />

        <stop offset="0.06" stop-color="#fcd006" />

        <stop offset="0.54" stop-color="#ea6921" />

        <stop offset="0.73" stop-color="#ea6921" />

        <stop offset="1" stop-color="#e71c35" />

    </radialGradient>

    </defs>

    <g id="CPS_Logo_light_bg" data-name="CPS Logo light bg">

    <g id="g4401">

        <g id="g4371">

        <g id="g4003">

            <path

            id="path4005"

            d="M31.38,31.88h-3v1.26h2.93V34H28.34v1.47h3.17v.87H27.14V31h4.24Z"

            transform="translate(0 0)"

            fill="#f58113"

            />

        </g>

        <g id="g4007">

            <path

            id="path4009"

            d="M32.22,31h1.69l3,4.1h0V31H38v5.34H36.42l-3.1-4.17h0v4.17H32.22Z"

            transform="translate(0 0)"

            fill="#f58113"

            />

        </g>

        <g id="g4011">

            <path

            id="path4013"

            d="M43.17,31.88h-3v1.26h2.93V34H40.13v1.47H43.3v.87H38.93V31h4.24Z"

            transform="translate(0 0)"

            fill="#f58113"

            />

        </g>

        <g id="g4023">

            <path

            id="path4025"

            d="M44,31h3.2c1.18,0,2.06.38,2.06,1.44s-.65,1.31-1.47,1.37v0c1.22,0,1.32.6,1.38,1.59a2.82,2.82,0,0,0,.16.92H48a3.28,3.28,0,0,1-.12-.84c0-1-.29-1.26-1.46-1.26H45.18v2.1H44Zm1.2,2.41h1.55c.71,0,1.27-.16,1.27-.81s-.58-.73-1.22-.73h-1.6Z"

            transform="translate(0 0)"

            fill="#f58113"

            />

        </g>

        <g id="g4027">

            <path

            id="path4029"

            d="M54.64,32.73c0-.74-.81-1-1.4-1a1.93,1.93,0,0,0-2.17,2c0,1,.53,2,2.18,2a4.66,4.66,0,0,0,1.46-.24v-1H53v-.84h2.88V36a7.74,7.74,0,0,1-2.71.47c-2,0-3.35-.88-3.35-2.82,0-1.6,1.14-2.8,3.24-2.8,1.61,0,2.82.61,2.82,1.86Z"

            transform="translate(0 0)"

            fill="#f58113"

            />

        </g>

        <g id="g4031">

            <path

            id="path4033"

            d="M62.18,31,59.6,34.32v2H58.4v-2L55.8,31h1.57l1.69,2.29L60.76,31Z"

            transform="translate(0 0)"

            fill="#f58113"

            />

        </g>

        </g>

        <g id="g4379">

        <g id="g3999">

            <path

            id="path4001"

            d="M60.64,8.25a30.84,30.84,0,0,0-8-.94c-5.45,0-10.93,1.56-10.93,6.78,0,4.15,5.25,5.39,10.24,6.07,4.84.65,5.89,1.24,5.89,2.18,0,1.49-.88,2.54-5.6,2.54a25.49,25.49,0,0,1-10.11-2.57v4.46a27.6,27.6,0,0,0,9.7,2.2c6.2,0,10.53-1.47,10.53-7.08,0-4.08-5-5.35-10.33-5.94-4.5-.5-5.67-1.22-5.67-2.08,0-1.35,1-2.41,5.62-2.41a34.19,34.19,0,0,1,8.65,1.15Z"

            transform="translate(0 0)"

            fill="#173e7d"

            />

        </g>

        <g id="g4085">

            <path

            id="path4087"

            d="M18.43,8.15a25.92,25.92,0,0,0-6.52-.81C8.39,7.34,4,8.1,2.47,9.63S0,14.66,0,18.17s1,7,2.47,8.55S8.39,29,11.91,29a25.92,25.92,0,0,0,6.52-.81V23.8a26.2,26.2,0,0,1-6.52,1.08c-2.47,0-5.62-.36-6.33-1.07S4.51,20.64,4.5,18.17s.36-4.92,1.08-5.64,3.86-1.07,6.33-1.07a26.2,26.2,0,0,1,6.52,1.08Z"

            transform="translate(0 0)"

            fill="#173e7d"

            />

        </g>

        <g id="g4089">

            <path

            id="path4091"

            d="M38.42,9.63c-1.53-1.53-5.35-2.29-9-2.29a27.67,27.67,0,0,0-8.9,1.35V36.36h4.41V28.47a18.46,18.46,0,0,0,4.53.53c3.52,0,7.42-.76,9-2.28s2.46-5,2.47-8.55-1-7-2.47-8.54M35.31,23.81c-.71.71-3.37,1.07-5.84,1.07a23.69,23.69,0,0,1-4.53-.57V12a22.74,22.74,0,0,1,4.53-.52c2.47,0,5.13.36,5.84,1.07s1.07,3.18,1.08,5.64S36,23.1,35.31,23.81"

            transform="translate(0 0)"

            fill="#173e7d"

            />

        </g>

        </g>

    </g>

    <g id="g4037">

        <g id="g4043">

        <path

            id="path4045"

            d="M69.12,32.16a3.29,3.29,0,0,1-1.55-3.45,12.22,12.22,0,0,1,.92-3.15A28.53,28.53,0,0,1,69.74,23c-.78-.38-1.68-.85-2.54-1.37a12.1,12.1,0,0,1-2.59-2,3.27,3.27,0,0,1-.77-3.71,31.24,31.24,0,0,0,1.9-5.8,3.25,3.25,0,0,1,2.8-2.54,12.38,12.38,0,0,1,3.28-.11c1,.08,2,.24,2.85.39C74.79,7,75,6,75.18,5a12.43,12.43,0,0,1,1.11-3.08A3.26,3.26,0,0,1,79.57,0a32,32,0,0,0,6.11,0A3.28,3.28,0,0,1,89,1.93,12,12,0,0,1,90.07,5a28.27,28.27,0,0,1,.52,2.84,28.06,28.06,0,0,1,2.85-.39,12,12,0,0,1,3.28.1,3.28,3.28,0,0,1,2.8,2.54,32.1,32.1,0,0,0,1.87,5.82,3.26,3.26,0,0,1-.77,3.7,12.21,12.21,0,0,1-2.59,2c-.85.51-1.76,1-2.53,1.36.4.76.86,1.67,1.24,2.59a12.33,12.33,0,0,1,.92,3.15,3.27,3.27,0,0,1-1.55,3.45,31.64,31.64,0,0,0-5,3.58,3.27,3.27,0,0,1-3.76.41,12,12,0,0,1-2.71-1.84c-.76-.66-1.49-1.37-2.08-2-.6.62-1.32,1.33-2.08,2a12.23,12.23,0,0,1-2.71,1.84,3.27,3.27,0,0,1-3.76-.41,31.68,31.68,0,0,0-4.94-3.6"

            transform="translate(0 0)"

            fill="#173e7d"

        />

        </g>

    </g>

    <g id="g4047">

        <g id="g4049">

        <g id="g4055">

            <g id="g4057">

            <path

                id="path4071"

                d="M76.25,10c-1-.23-8.36-1.91-8.72.36h0c-.21,1.34,4.15,4.62,8.16,6.16h0c-4.15-1.11-9.62-1-10.23.19h0c-1,2.05,5.93,5,6.84,5.42h0c-.51.84-4.41,7.36-2.35,8.4h0c1.21.62,5.67-2.52,8.38-5.86h0c-2.34,3.62-4,8.84-3,9.8h0C77,36.11,82,30.39,82.61,29.65h0c.64.74,5.64,6.46,7.27,4.83h0c1-1-.65-6.17-3-9.79h0c2.72,3.35,7.19,6.49,8.4,5.87h0c2-1-1.84-7.57-2.35-8.4h0c.9-.38,7.88-3.37,6.84-5.42h0c-.62-1.21-6.07-1.3-10.23-.19h0c4-1.55,8.39-4.82,8.18-6.17h0C97.37,8.11,90,9.8,89,10h0c-.08-1-.77-8.54-3-8.18h0c-1.35.21-3.11,5.37-3.34,9.67h0c-.23-4.3-2-9.47-3.34-9.68h-.16c-2.15,0-2.8,7.23-2.88,8.19"

                transform="translate(0 0)"

                fill="url(#radial-gradient)"

            />

            </g>

        </g>

        </g>

    </g>

    <g id="g4081">

        <path

        id="path4083"

        d="M80.93,16.41c-1.07.78-2.81.76-4.77.25,1.87.74,3.29,1.74,3.7,3s-.15,2.91-1.24,4.62c1.29-1.56,2.67-2.59,4-2.59s2.72,1,4,2.6C85.54,22.59,85,21,85.4,19.69s1.82-2.27,3.71-3c-2,.5-3.69.53-4.76-.25S82.77,14,82.64,12c-.13,2-.64,3.67-1.71,4.44"

        transform="translate(0 0)"

        fill="#fff"

        />

    </g>

    <g id="g4093">

        <path

        id="path4095"

        d="M93.35,2.64A2.62,2.62,0,1,1,96,5.26a2.63,2.63,0,0,1-2.62-2.62m.52,0A2.11,2.11,0,1,0,96,.53a2.12,2.12,0,0,0-2.11,2.11"

        transform="translate(0 0)"

        fill="#f58113"

        />

    </g>

    <g id="g4097">

        <path

        id="path4099"

        d="M95.13,1.31a3.73,3.73,0,0,1,.74-.06,1.24,1.24,0,0,1,.82.22.66.66,0,0,1,.23.53.7.7,0,0,1-.48.67v0a.67.67,0,0,1,.37.51A4.83,4.83,0,0,0,97,4h-.51a3.61,3.61,0,0,1-.17-.63c-.08-.35-.2-.46-.48-.47h-.25V4h-.48Zm.48,1.18h.29c.33,0,.54-.17.54-.44s-.21-.43-.53-.43l-.3,0Z"

        transform="translate(0 0)"

        fill="#f58113"

        />

    </g>

    </g>

</svg>