<svg

      fill="none"

      xmlns="http://www.w3.org/2000/svg"

      width="24"

      height="24"

      id="cps-logo-dark"

      viewBox="0 0 102.13 37.44"

    >

    <defs>

    <radialGradient

        id="radial-gradient"

        cx="-593.61"

        cy="380.9"

        r="1"

        gradientTransform="matrix(16.88, 0, 0, -16.88, 10100.38, 6446.8)"

        gradientUnits="userSpaceOnUse"

    >

        <stop offset="0" stop-color="#fcd006" />

        <stop offset="0.06" stop-color="#fcd006" />

        <stop offset="0.54" stop-color="#ea6921" />

        <stop offset="0.73" stop-color="#ea6921" />

        <stop offset="1" stop-color="#e71c35" />

    </radialGradient>

    </defs>

    <g id="CPS_Logo_dark_bg" data-name="CPS Logo dark bg">

    <g id="g194">

        <path

        id="path196"

        d="M31.38,32.31h-3v1.26h2.93v.88H28.34v1.46h3.17v.88H27.14V31.44h4.24Z"

        fill="#f58113"

        />

    </g>

    <g id="g198">

        <path

        id="path200"

        d="M32.22,31.44h1.69l3,4.1h0v-4.1H38v5.35H36.42l-3.1-4.18h0v4.18H32.22Z"

        fill="#f58113"

        />

    </g>

    <g id="g202">

        <path

        id="path204"

        d="M43.17,32.31h-3v1.26h2.93v.88H40.13v1.46H43.3v.88H38.93V31.44h4.24Z"

        fill="#f58113"

        />

    </g>

    <g id="g214">

        <path

        id="path216"

        d="M44,31.44h3.2c1.18,0,2.06.38,2.06,1.44s-.65,1.32-1.47,1.38h0c1.22,0,1.32.6,1.38,1.59a3,3,0,0,0,.16.93H48a3.45,3.45,0,0,1-.12-.85c0-1-.29-1.26-1.46-1.26H45.18v2.11H44Zm1.2,2.41h1.55c.71,0,1.27-.16,1.27-.8s-.58-.74-1.22-.74h-1.6Z"

        fill="#f58113"

        />

    </g>

    <g id="g218">

        <path

        id="path220"

        d="M54.64,33.17c0-.75-.81-1-1.4-1a1.93,1.93,0,0,0-2.17,2c0,1,.53,2,2.18,2a4.66,4.66,0,0,0,1.46-.24v-1H53V34h2.88v2.49a7.75,7.75,0,0,1-2.71.48c-2,0-3.35-.89-3.35-2.83,0-1.6,1.14-2.8,3.24-2.8,1.61,0,2.82.62,2.82,1.87Z"

        fill="#f58113"

        />

    </g>

    <g id="g222">

        <path

        id="path224"

        d="M62.18,31.44,59.6,34.75v2H58.4v-2l-2.6-3.31h1.57l1.69,2.29,1.7-2.29Z"

        fill="#f58113"

        />

    </g>

    <g id="g228">

        <g id="g234">

        <path

            id="path236"

            d="M69.12,32.59a3.29,3.29,0,0,1-1.55-3.45A12.33,12.33,0,0,1,68.49,26a28.53,28.53,0,0,1,1.25-2.59C69,23,68.06,22.55,67.2,22a12.14,12.14,0,0,1-2.59-2,3.26,3.26,0,0,1-.77-3.7,31.33,31.33,0,0,0,1.9-5.81A3.25,3.25,0,0,1,68.54,8a12,12,0,0,1,3.28-.1c1,.08,2,.23,2.85.38.12-.85.28-1.86.51-2.83a12.43,12.43,0,0,1,1.11-3.08A3.26,3.26,0,0,1,79.57.47a32,32,0,0,0,6.11,0A3.28,3.28,0,0,1,89,2.36a12.16,12.16,0,0,1,1.1,3.08,28.27,28.27,0,0,1,.52,2.84,28.06,28.06,0,0,1,2.85-.39,12,12,0,0,1,3.28.1,3.28,3.28,0,0,1,2.8,2.54,31.85,31.85,0,0,0,1.87,5.82,3.26,3.26,0,0,1-.77,3.7,11.9,11.9,0,0,1-2.59,2c-.85.52-1.76,1-2.53,1.36.4.76.86,1.68,1.24,2.6a12.15,12.15,0,0,1,.92,3.14,3.27,3.27,0,0,1-1.55,3.45,32.3,32.3,0,0,0-5,3.58,3.27,3.27,0,0,1-3.76.41,12,12,0,0,1-2.71-1.84c-.76-.65-1.49-1.37-2.08-2-.6.62-1.32,1.34-2.08,2a12.23,12.23,0,0,1-2.71,1.84,3.27,3.27,0,0,1-3.76-.41,31.68,31.68,0,0,0-4.94-3.6"

            fill="#173e7d"

        />

        </g>

        <g id="g238">

        <path

            id="path240"

            d="M89.16,37.44A4.81,4.81,0,0,1,87.23,37a12.18,12.18,0,0,1-2.82-1.91c-.65-.55-1.27-1.15-1.8-1.69-.54.54-1.16,1.14-1.8,1.69A12.18,12.18,0,0,1,78,37a4.74,4.74,0,0,1-1.94.45,3.11,3.11,0,0,1-2.29-.95A31.89,31.89,0,0,0,68.93,33l.19-.38.2-.39a32.53,32.53,0,0,1,5,3.68,2.26,2.26,0,0,0,1.69.7,4.14,4.14,0,0,0,1.59-.37,11.84,11.84,0,0,0,2.61-1.78c.74-.64,1.46-1.35,2-2l.31-.32.31.32c.59.61,1.3,1.32,2,2a11.62,11.62,0,0,0,2.61,1.78,4.13,4.13,0,0,0,1.58.37,2.24,2.24,0,0,0,1.69-.7,32.34,32.34,0,0,1,5.06-3.65,2.64,2.64,0,0,0,1.35-2.51,3.89,3.89,0,0,0,0-.51,11.46,11.46,0,0,0-.88-3c-.38-.9-.83-1.81-1.23-2.56l-.21-.39.4-.2c.77-.37,1.66-.83,2.5-1.34a11.49,11.49,0,0,0,2.49-1.93,3.43,3.43,0,0,0,1-2.16,2.32,2.32,0,0,0-.26-1.06,31.68,31.68,0,0,1-1.92-5.94,2.85,2.85,0,0,0-2.46-2.19,8.5,8.5,0,0,0-1.78-.15c-.46,0-.93,0-1.37.06-1,.08-2,.23-2.81.38l-.45.08-.06-.44a27,27,0,0,0-.51-2.8,11.18,11.18,0,0,0-1.06-3A3,3,0,0,0,86.15.87a1.87,1.87,0,0,0-.4,0,23.64,23.64,0,0,1-3,.14A25.19,25.19,0,0,1,79.5.89l-.39,0a3,3,0,0,0-2.44,1.7,11.4,11.4,0,0,0-1.07,3c-.22,1-.39,2-.51,2.79L75,8.77l-.44-.08a27.62,27.62,0,0,0-2.81-.39c-.44,0-.91-.06-1.37-.06a9.14,9.14,0,0,0-1.78.16,2.85,2.85,0,0,0-2.47,2.19,31.16,31.16,0,0,1-1.94,5.93A2.32,2.32,0,0,0,64,17.58a3.41,3.41,0,0,0,1,2.16,11.55,11.55,0,0,0,2.5,1.93c.83.5,1.73,1,2.5,1.34l.4.19-.21.4c-.41.75-.86,1.66-1.24,2.56a11.42,11.42,0,0,0-.88,3,3.53,3.53,0,0,0,0,.5,2.61,2.61,0,0,0,1.35,2.5l-.2.39-.2.38a3.47,3.47,0,0,1-1.81-3.27,3.74,3.74,0,0,1,0-.61,12.58,12.58,0,0,1,.94-3.26c.33-.79.7-1.56,1.06-2.24-.69-.34-1.45-.75-2.17-1.19a12.5,12.5,0,0,1-2.69-2.08,4.22,4.22,0,0,1-1.19-2.74,3.08,3.08,0,0,1,.36-1.45,32.49,32.49,0,0,0,1.85-5.68,3.69,3.69,0,0,1,3.14-2.89,9.79,9.79,0,0,1,2-.18c.49,0,1,0,1.44.07.85.06,1.7.18,2.45.31.12-.76.27-1.6.46-2.43a12.93,12.93,0,0,1,1.16-3.2A3.82,3.82,0,0,1,79.11,0a3.23,3.23,0,0,1,.53,0,24,24,0,0,0,3.11.15A24.52,24.52,0,0,0,85.61.06a3.39,3.39,0,0,1,.54,0,3.86,3.86,0,0,1,3.19,2.14,12.31,12.31,0,0,1,1.15,3.19c.2.83.35,1.68.46,2.44.76-.13,1.61-.25,2.46-.32.46,0,1-.07,1.44-.07a10.59,10.59,0,0,1,2,.18,3.69,3.69,0,0,1,3.13,2.9,33,33,0,0,0,1.83,5.68,3.1,3.1,0,0,1,.36,1.45,4.22,4.22,0,0,1-1.19,2.74,12.26,12.26,0,0,1-2.69,2.08c-.72.44-1.48.85-2.17,1.19.36.68.74,1.46,1.06,2.24a12.56,12.56,0,0,1,1,3.27c0,.17,0,.38,0,.6A3.46,3.46,0,0,1,96.3,33a32.75,32.75,0,0,0-4.84,3.5,3.14,3.14,0,0,1-2.28.95Z"

            fill="#fff"

        />

        </g>

    </g>

    <g id="g242">

        <g id="g244">

        <g id="g250">

            <g id="g252">

            <path

                id="path266"

                d="M76.25,10.44c-1-.23-8.36-1.91-8.72.37h0c-.21,1.34,4.15,4.61,8.16,6.16h0c-4.16-1.11-9.62-1-10.23.18h0c-1,2.05,5.93,5,6.84,5.42h0c-.51.84-4.41,7.36-2.35,8.41h0c1.21.61,5.67-2.53,8.38-5.87h0c-2.34,3.62-4,8.84-3,9.8h0C77,36.54,82,30.82,82.61,30.08h0c.64.74,5.64,6.46,7.27,4.83h0c1-1-.65-6.17-3-9.78h0c2.72,3.34,7.19,6.48,8.4,5.87h0c2-1.05-1.84-7.57-2.35-8.41h0c.9-.38,7.88-3.37,6.84-5.42h0C99.16,16,93.71,15.88,89.55,17h0c4-1.55,8.39-4.83,8.18-6.17h0c-.36-2.28-7.77-.59-8.72-.37h0c-.08-1-.77-8.54-3-8.18h0c-1.34.21-3.11,5.38-3.34,9.67h0c-.23-4.3-2-9.47-3.34-9.68h-.16c-2.15,0-2.8,7.24-2.88,8.19"

                fill="url(#radial-gradient)"

            />

            </g>

        </g>

        </g>

    </g>

    <g id="g276">

        <path

        id="path278"

        d="M80.93,16.85c-1.07.78-2.81.75-4.77.24,1.87.75,3.29,1.74,3.7,3s-.15,2.91-1.24,4.62c1.29-1.56,2.67-2.59,4-2.59s2.72,1,4,2.6C85.54,23,85,21.38,85.4,20.12s1.82-2.26,3.71-3c-2,.5-3.69.53-4.76-.25s-1.58-2.44-1.71-4.46c-.13,2-.64,3.67-1.71,4.45"

        fill="#fff"

        />

    </g>

    <path

        id="path192"

        d="M60.64,8.69a30.37,30.37,0,0,0-8-.95c-5.45,0-10.93,1.56-10.93,6.78,0,4.16,5.25,5.4,10.24,6.07,4.84.65,5.89,1.24,5.89,2.18,0,1.49-.88,2.54-5.6,2.54a25.49,25.49,0,0,1-10.11-2.57V27.2a27.6,27.6,0,0,0,9.7,2.2c6.2,0,10.53-1.47,10.53-7.07,0-4.09-5-5.36-10.33-5.94-4.5-.5-5.67-1.22-5.67-2.09,0-1.35,1-2.41,5.62-2.41A34.19,34.19,0,0,1,60.63,13Z"

        fill="#fff"

    />

    <g id="g280">

        <path

        id="path282"

        d="M18.43,8.58a26,26,0,0,0-6.52-.8c-3.52,0-7.92.76-9.44,2.28S0,15.09,0,18.6s1,7,2.47,8.55,5.92,2.28,9.44,2.28a26,26,0,0,0,6.52-.8v-4.4a25.82,25.82,0,0,1-6.52,1.08c-2.47,0-5.62-.35-6.34-1.07S4.51,21.07,4.5,18.6,4.86,13.68,5.57,13s3.87-1.07,6.34-1.07A25.82,25.82,0,0,1,18.43,13Z"

        fill="#fff"

        />

    </g>

    <g id="g284">

        <path

        id="path286"

        d="M38.42,10.06c-1.53-1.52-5.35-2.29-9-2.29a27.67,27.67,0,0,0-8.9,1.35V36.79h4.41V28.91a19,19,0,0,0,4.53.52c3.52,0,7.42-.76,9-2.28s2.46-5,2.47-8.55-1-7-2.47-8.54M35.31,24.24c-.71.72-3.37,1.07-5.84,1.07a22.92,22.92,0,0,1-4.53-.57V12.41a23.5,23.5,0,0,1,4.53-.52c2.47,0,5.13.36,5.84,1.08s1.07,3.17,1.08,5.63-.36,4.93-1.08,5.64"

        fill="#fff"

        />

    </g>

    <g id="g288">

        <path

        id="path290"

        d="M93.35,2.81A2.62,2.62,0,1,1,96,5.44a2.63,2.63,0,0,1-2.62-2.63m.52,0A2.11,2.11,0,1,0,96,.71a2.1,2.1,0,0,0-2.11,2.11"

        fill="#f58113"

        />

    </g>

    <g id="g292">

        <path

        id="path294"

        d="M95.13,1.52a4.86,4.86,0,0,1,.74-.05,1.24,1.24,0,0,1,.82.21.68.68,0,0,1,.23.54.7.7,0,0,1-.48.67h0a.69.69,0,0,1,.37.52,4.32,4.32,0,0,0,.21.74h-.51a3.35,3.35,0,0,1-.17-.63c-.08-.35-.2-.46-.48-.46h-.25V4.16h-.48Zm.48,1.19h.29c.33,0,.54-.18.54-.44s-.21-.43-.53-.43l-.3,0Z"

        fill="#f58113"

        />

    </g>

    </g>

</svg>